# xmcd
#
# Track frame offsets: 
#        150
#        14700
#        33900
#        51600
#        66825
#        84225
#        101025
#        121350
#        141300
#        159450
#        174825
#        191550
#        206100
#        223275
#        244050
#        263625
#
# Disc length: 3722 seconds
#
# Revision: 1
# Processed by: cddbd v1.5.2PL0 Copyright (c) Steve Scherf et al.
# Submitted via: ExactAudioCopy v1.2
#
DISCID=ee0e8810
DTITLE=吳雨霏 - Simpler than Love (新曲+精選) Disc1
DYEAR=2011
DGENRE=Pop
TTITLE0=比愛情簡單
TTITLE1=愛是最大權利
TTITLE2=座右銘
TTITLE3=暫借問
TTITLE4=Here We Are
TTITLE5=我話事
TTITLE6=明知做戲
TTITLE7=我傻女
TTITLE8=二十世紀少年 (PP Unplugged)
TTITLE9=Control
TTITLE10=麗池舞會
TTITLE11=吳雨霏／鄧麗欣 - 絕代雙嬌
TTITLE12=Keep Breathing
TTITLE13=愛德華時代
TTITLE14=南方的風 (國語)
TTITLE15=台北四天三夜 (國語)
EXTD=
EXTT0=
EXTT1=
EXTT2=
EXTT3=
EXTT4=
EXTT5=
EXTT6=
EXTT7=
EXTT8=
EXTT9=
EXTT10=
EXTT11=
EXTT12=
EXTT13=
EXTT14=
EXTT15=
PLAYORDER=
